<svg width="232" height="232" viewBox="0 0 232 232" fill="none" xmlns="http://www.w3.org/2000/svg">
<path d="M91.0036 206.471C141.022 220.223 192.718 190.824 206.471 140.806C220.223 90.7877 190.824 39.0913 140.806 25.3388C90.7876 11.5862 39.0911 40.9854 25.3386 91.0037C11.5861 141.022 40.9853 192.718 91.0036 206.471Z" fill="#6D4152"/>
<path d="M110.13 186.943C101.053 187.05 92.1806 184.61 84.5498 179.91C30.4743 146.699 82.2961 93.8989 89.7507 87.521C107.684 71.8787 109.825 70.856 114.64 58.2994C121.089 41.6063 134.977 46.54 134.977 46.54C134.977 46.54 149.466 49.2845 146.442 67.0433C144.193 80.1817 145.478 82.27 152.893 104.882C156.039 114.175 173.583 186.047 110.13 186.943Z" fill="#354B0B" stroke="#1E1E1E" stroke-width="7.17" stroke-miterlimit="10" stroke-linecap="round" stroke-linejoin="round"/>
<path d="M102.377 165.105C119.114 169.707 136.411 159.87 141.013 143.134C145.615 126.397 135.778 109.099 119.041 104.498C102.305 99.896 85.0069 109.733 80.4052 126.47C75.8036 143.206 85.6407 160.504 102.377 165.105Z" fill="#EEEEEE" stroke="#1E1E1E" stroke-width="7.17" stroke-miterlimit="10" stroke-linecap="round" stroke-linejoin="round"/>
<path d="M116.38 114.177C116.38 114.177 133.128 119.525 131.06 136.059Z" fill="#EEEEEE"/>
<path d="M116.38 114.177C116.38 114.177 133.128 119.525 131.06 136.059" stroke="#1E1E1E" stroke-width="7.17" stroke-miterlimit="10" stroke-linecap="round" stroke-linejoin="round"/>
</svg>
