<svg width="232" height="214" viewBox="0 0 232 214" fill="none" xmlns="http://www.w3.org/2000/svg">
<path d="M91.0038 206.471C141.022 220.223 192.719 190.824 206.471 140.806C220.224 90.7877 190.824 39.0913 140.806 25.3388C90.7878 11.5862 39.0914 40.9854 25.3389 91.0037C11.5863 141.022 40.9855 192.718 91.0038 206.471Z" fill="#E6CACA"/>
<path d="M110.13 186.943C101.053 187.05 92.1811 184.61 84.5503 179.91C30.4748 146.699 82.2966 93.8989 89.7512 87.521C107.685 71.8787 109.825 70.856 114.641 58.2994C121.09 41.6063 134.977 46.54 134.977 46.54C134.977 46.54 149.466 49.2845 146.443 67.0433C144.193 80.1817 145.478 82.27 152.894 104.882C156.04 114.175 173.583 186.047 110.13 186.943Z" fill="#829460" stroke="#303030" stroke-width="7.17" stroke-miterlimit="10" stroke-linecap="round" stroke-linejoin="round"/>
<path d="M102.377 165.106C119.114 169.707 136.412 159.87 141.013 143.134C145.615 126.397 135.778 109.099 119.041 104.498C102.305 99.896 85.0072 109.733 80.4055 126.47C75.8038 143.206 85.641 160.504 102.377 165.106Z" fill="#EEEEEE" stroke="#303030" stroke-width="7.17" stroke-miterlimit="10" stroke-linecap="round" stroke-linejoin="round"/>
<path d="M116.38 114.177C116.38 114.177 133.128 119.525 131.06 136.059L116.38 114.177Z" fill="white"/>
<path d="M116.38 114.177C116.38 114.177 133.128 119.525 131.06 136.059" stroke="#303030" stroke-width="7.17" stroke-miterlimit="10" stroke-linecap="round" stroke-linejoin="round"/>
</svg>
