<svg width="48" height="47" viewBox="0 0 48 47" fill="none" xmlns="http://www.w3.org/2000/svg">
<path d="M32.9004 38.1319C40.8623 33.303 43.4019 22.934 38.573 14.9722C33.744 7.01035 23.3751 4.47066 15.4132 9.29961C7.45141 14.1286 4.91171 24.4975 9.74067 32.4594C14.5696 40.4212 24.9386 42.9609 32.9004 38.1319Z" fill="#6D4152"/>
<path d="M25.0266 24.4174L24.9686 24.3218L24.5521 24.6268L24.0891 24.8552L24.1471 24.9508L20.7729 27.4942C20.7729 27.4942 26.361 30.8001 29.6076 35.2907C29.6384 35.2983 30.1928 34.962 30.6517 34.6837C31.1297 34.3938 31.6766 34.0882 31.6726 34.0383C29.1907 29.0839 28.8414 22.6006 28.8414 22.6006L25.0266 24.4174ZM27.1769 28.9976C26.9913 28.6917 23.314 25.5607 23.314 25.5607L26.9282 23.4994C26.0622 24.4431 27.1954 28.8556 27.1769 28.9976Z" fill="#EEEEEE" stroke="#1E1E1E" stroke-width="1.34168" stroke-miterlimit="10" stroke-linecap="round" stroke-linejoin="round"/>
<path d="M28.4487 15.8298C27.3235 14.7077 25.7066 14.1976 24.1623 14.4543C22.9622 12.9069 20.7779 12.4533 19.0572 13.4969C17.91 14.1927 17.2637 15.3693 17.1853 16.6199C16.9518 16.7092 16.7298 16.8176 16.5195 16.9452C14.8944 17.9309 14.2443 19.9205 14.9084 21.6623C13.3095 23.3381 13.0345 25.9894 14.4631 27.9998C15.8452 29.9337 18.441 30.6346 20.5953 29.6157C21.5136 29.1895 22.2239 28.5495 22.711 27.7571C23.8277 27.9167 24.9965 27.7309 26.0481 27.0931C27.4247 26.2582 28.2541 24.8659 28.4234 23.3771C29.5216 23.6787 30.7403 23.4888 31.7646 22.7629C33.2894 21.655 33.7894 19.5472 32.9185 17.8525C32.0359 16.1386 30.1685 15.3882 28.4487 15.8298Z" fill="#354B0B" stroke="#1E1E1E" stroke-width="1.34168" stroke-miterlimit="10" stroke-linecap="round" stroke-linejoin="round"/>
<path d="M18.4574 23.7202C18.4574 23.7202 17.0433 21.518 20.0845 19.9349Z" fill="#354B0B"/>
<path d="M18.4574 23.7202C18.4574 23.7202 17.0433 21.518 20.0845 19.9349" stroke="#1E1E1E" stroke-width="1.34168" stroke-miterlimit="10" stroke-linecap="round" stroke-linejoin="round"/>
</svg>
