<svg width="213" height="213" viewBox="0 0 213 213" fill="none" xmlns="http://www.w3.org/2000/svg">
<path d="M98.9254 204.605C153.107 208.788 200.422 168.256 204.605 114.074C208.788 59.8922 168.256 12.578 114.074 8.39491C59.8919 4.21179 12.5777 44.7438 8.39455 98.9258C4.21144 153.108 44.7435 200.422 98.9254 204.605Z" fill="#6D4152"/>
<path d="M114.07 128.812C93.4849 153.008 66.5755 172.658 59.0807 166.32C51.7159 159.992 66.5875 130.12 87.1725 105.924C107.758 81.7283 115.514 84.6831 122.878 91.0107C130.363 97.4786 134.655 104.616 114.07 128.812Z" fill="#EEEEEE" stroke="#1E1E1E" stroke-width="7.83" stroke-miterlimit="10" stroke-linecap="round" stroke-linejoin="round"/>
<path d="M122.999 91.1509C122.999 91.1509 148.578 66.6863 168.082 80.2338C187.585 93.7813 148.707 105.701 122.999 91.1509Z" fill="#354B0B" stroke="#1E1E1E" stroke-width="7.83" stroke-miterlimit="10" stroke-linecap="round" stroke-linejoin="round"/>
<path d="M122.258 90.5702C122.258 90.5702 142.184 61.3498 125.694 44.3701C109.204 27.3904 103.748 67.5446 122.258 90.5702Z" fill="#354B0B" stroke="#1E1E1E" stroke-width="7.83" stroke-miterlimit="10" stroke-linecap="round" stroke-linejoin="round"/>
<path d="M123.42 89.0892C123.42 89.0892 158.422 83.2839 159.2 59.6531C159.977 36.0223 127.261 59.6741 123.42 89.0892Z" fill="#354B0B" stroke="#1E1E1E" stroke-width="7.83" stroke-miterlimit="10" stroke-linecap="round" stroke-linejoin="round"/>
<path d="M79.0156 140.372L91.0831 151.906" stroke="#1E1E1E" stroke-width="7.83" stroke-miterlimit="10" stroke-linecap="round" stroke-linejoin="round"/>
<path d="M78.0107 117.782L86.7068 123.82" stroke="#1E1E1E" stroke-width="7.83" stroke-miterlimit="10" stroke-linecap="round" stroke-linejoin="round"/>
<path d="M109.92 116.45L119.136 122.528" stroke="#1E1E1E" stroke-width="7.83" stroke-miterlimit="10" stroke-linecap="round" stroke-linejoin="round"/>
</svg>
