<svg width="213" height="213" viewBox="0 0 213 213" fill="none" xmlns="http://www.w3.org/2000/svg">
<path d="M98.9259 204.605C153.108 208.788 200.422 168.256 204.605 114.074C208.788 59.8922 168.256 12.578 114.074 8.39491C59.8924 4.21179 12.5782 44.7438 8.39504 98.9258C4.21193 153.108 44.744 200.422 98.9259 204.605Z" fill="#EDD8D8"/>
<path d="M114.071 128.812C93.4854 153.008 66.576 172.658 59.0811 166.32C51.7164 159.992 66.5879 130.12 87.173 105.924C107.758 81.7283 115.514 84.6831 122.879 91.0107C130.364 97.4786 134.656 104.616 114.071 128.812Z" fill="#EEEEEE" stroke="#2B2B2B" stroke-width="7.83" stroke-miterlimit="10" stroke-linecap="round" stroke-linejoin="round"/>
<path d="M122.999 91.1509C122.999 91.1509 148.579 66.6863 168.082 80.2338C187.586 93.7813 148.708 105.701 122.999 91.1509Z" fill="#829460" stroke="#2B2B2B" stroke-width="7.83" stroke-miterlimit="10" stroke-linecap="round" stroke-linejoin="round"/>
<path d="M122.258 90.5702C122.258 90.5702 142.184 61.3498 125.694 44.3701C109.205 27.3904 103.748 67.5446 122.258 90.5702Z" fill="#829460" stroke="#2B2B2B" stroke-width="7.83" stroke-miterlimit="10" stroke-linecap="round" stroke-linejoin="round"/>
<path d="M123.42 89.0892C123.42 89.0892 158.423 83.2839 159.2 59.6531C159.978 36.0223 127.262 59.6741 123.42 89.0892Z" fill="#829460" stroke="#2B2B2B" stroke-width="7.83" stroke-miterlimit="10" stroke-linecap="round" stroke-linejoin="round"/>
<path d="M79.0161 140.372L91.0836 151.906" stroke="#2B2B2B" stroke-width="7.83" stroke-miterlimit="10" stroke-linecap="round" stroke-linejoin="round"/>
<path d="M78.0117 117.782L86.7078 123.82" stroke="#2B2B2B" stroke-width="7.83" stroke-miterlimit="10" stroke-linecap="round" stroke-linejoin="round"/>
<path d="M109.92 116.45L119.137 122.528" stroke="#2B2B2B" stroke-width="7.83" stroke-miterlimit="10" stroke-linecap="round" stroke-linejoin="round"/>
</svg>
